;<svg
  xmlns="http://www.w3.org/2000/svg"
  width="180"
  height="48"
  viewBox="0 0 180 48"
  fill="none"
>
  <rect width="47.9445" height="47.9445" rx="10.6269" fill="#1F1F1F"></rect>
  <path
    d="M30.4721 14.4315C30.4721 18.2347 27.389 21.3179 23.5857 21.3179C19.7824 21.3179 16.6993 18.2347 16.6993 14.4315C16.6993 10.6282 19.7824 7.54503 23.5857 7.54503C27.389 7.54503 30.4721 10.6282 30.4721 14.4315Z"
    stroke="#FFD976"
    stroke-width="1.62034"
  ></path>
  <path
    d="M20.754 31.4451C20.754 35.2484 17.6709 38.3316 13.8676 38.3316C10.0643 38.3316 6.98119 35.2484 6.98119 31.4451C6.98119 27.6419 10.0643 24.5587 13.8676 24.5587C17.6709 24.5587 20.754 27.6419 20.754 31.4451Z"
    stroke="#FFD976"
    stroke-width="1.62034"
  ></path>
  <path
    d="M41.004 31.4451C41.004 35.2484 37.9209 38.3316 34.1176 38.3316C30.3143 38.3316 27.2312 35.2484 27.2312 31.4451C27.2312 27.6419 30.3143 24.5587 34.1176 24.5587C37.9209 24.5587 41.004 27.6419 41.004 31.4451Z"
    stroke="#FFD976"
    stroke-width="1.62034"
  ></path>
  <rect
    x="19.9503"
    y="10.7852"
    width="7.29151"
    height="7.29151"
    rx="3.64576"
    fill="#FFFBE9"
  ></rect>
  <rect
    x="10.2162"
    y="27.7998"
    width="7.29151"
    height="7.29151"
    rx="3.64576"
    fill="#FFFBE9"
  ></rect>
  <rect
    x="30.4662"
    y="27.7998"
    width="7.29151"
    height="7.29151"
    rx="3.64576"
    fill="#FFFBE9"
  ></rect>
  <rect
    x="18.3226"
    y="18.8877"
    width="2.43413"
    height="6.48134"
    rx="1.21707"
    transform="rotate(30 18.3226 18.8877)"
    fill="#FFD976"
  ></rect>
  <rect
    x="26.9875"
    y="19.6763"
    width="2.43413"
    height="7.55659"
    rx="1.21707"
    transform="rotate(-30 26.9875 19.6763)"
    fill="#FFD976"
  ></rect>
  <rect
    x="27.5939"
    y="31.062"
    width="2.43275"
    height="7.20468"
    rx="1.21637"
    transform="rotate(90 27.5939 31.062)"
    fill="#FFD976"
  ></rect>
  <path
    d="M62.8053 27.008H69.5373V30H58.816V27.5067L65.412 17.1253H58.9747V14.1333H69.4013V16.604L62.8053 27.008ZM72.9182 17.3067C72.4347 17.3067 72.0115 17.1329 71.6489 16.7853C71.3013 16.4227 71.1275 15.9996 71.1275 15.516C71.1275 15.0324 71.3013 14.6093 71.6489 14.2467C72.0115 13.884 72.4347 13.7027 72.9182 13.7027C73.4169 13.7027 73.84 13.884 74.1875 14.2467C74.5502 14.6093 74.7315 15.0324 74.7315 15.516C74.7315 15.9996 74.5502 16.4227 74.1875 16.7853C73.84 17.1329 73.4169 17.3067 72.9182 17.3067ZM71.4675 30V18.6667H74.3915V30H71.4675ZM83.6638 18.3493C85.19 18.3493 86.4896 18.9311 87.5625 20.0947C88.6505 21.2431 89.1945 22.656 89.1945 24.3333C89.1945 26.0107 88.6505 27.4311 87.5625 28.5947C86.4896 29.7431 85.19 30.3173 83.6638 30.3173C82.0771 30.3173 80.8531 29.7658 79.9918 28.6627V34.5333H77.0678V18.6667H79.9918V20.004C80.8531 18.9009 82.0771 18.3493 83.6638 18.3493ZM80.8758 26.6453C81.4651 27.2347 82.2131 27.5293 83.1198 27.5293C84.0265 27.5293 84.7745 27.2347 85.3638 26.6453C85.9682 26.0409 86.2705 25.2702 86.2705 24.3333C86.2705 23.3964 85.9682 22.6333 85.3638 22.044C84.7745 21.4396 84.0265 21.1373 83.1198 21.1373C82.2131 21.1373 81.4651 21.4396 80.8758 22.044C80.2865 22.6333 79.9918 23.3964 79.9918 24.3333C79.9918 25.2702 80.2865 26.0409 80.8758 26.6453ZM94.7246 27.008H101.457V30H90.7353V27.5067L97.3313 17.1253H90.8939V14.1333H101.321V16.604L94.7246 27.008ZM111.557 18.6667H114.481V30H111.557V28.6627C110.681 29.7658 109.449 30.3173 107.863 30.3173C106.352 30.3173 105.052 29.7431 103.964 28.5947C102.891 27.4311 102.355 26.0107 102.355 24.3333C102.355 22.656 102.891 21.2431 103.964 20.0947C105.052 18.9311 106.352 18.3493 107.863 18.3493C109.449 18.3493 110.681 18.9009 111.557 20.004V18.6667ZM106.163 26.6453C106.752 27.2347 107.5 27.5293 108.407 27.5293C109.313 27.5293 110.061 27.2347 110.651 26.6453C111.255 26.0409 111.557 25.2702 111.557 24.3333C111.557 23.3964 111.255 22.6333 110.651 22.044C110.061 21.4396 109.313 21.1373 108.407 21.1373C107.5 21.1373 106.752 21.4396 106.163 22.044C105.573 22.6333 105.279 23.3964 105.279 24.3333C105.279 25.2702 105.573 26.0409 106.163 26.6453ZM123.729 18.3493C125.255 18.3493 126.555 18.9311 127.628 20.0947C128.716 21.2431 129.26 22.656 129.26 24.3333C129.26 26.0107 128.716 27.4311 127.628 28.5947C126.555 29.7431 125.255 30.3173 123.729 30.3173C122.142 30.3173 120.918 29.7658 120.057 28.6627V34.5333H117.133V18.6667H120.057V20.004C120.918 18.9009 122.142 18.3493 123.729 18.3493ZM120.941 26.6453C121.53 27.2347 122.278 27.5293 123.185 27.5293C124.092 27.5293 124.84 27.2347 125.429 26.6453C126.033 26.0409 126.336 25.2702 126.336 24.3333C126.336 23.3964 126.033 22.6333 125.429 22.044C124.84 21.4396 124.092 21.1373 123.185 21.1373C122.278 21.1373 121.53 21.4396 120.941 22.044C120.352 22.6333 120.057 23.3964 120.057 24.3333C120.057 25.2702 120.352 26.0409 120.941 26.6453ZM143.04 14.1333C144.567 14.1333 145.851 14.6471 146.894 15.6747C147.936 16.7022 148.458 17.964 148.458 19.46C148.458 20.956 147.936 22.2178 146.894 23.2453C145.851 24.2729 144.567 24.7867 143.04 24.7867H140.252V30H137.124V14.1333H143.04ZM143.04 21.8627C143.705 21.8627 144.257 21.636 144.695 21.1827C145.133 20.7142 145.352 20.14 145.352 19.46C145.352 18.7649 145.133 18.1907 144.695 17.7373C144.257 17.284 143.705 17.0573 143.04 17.0573H140.252V21.8627H143.04ZM163.734 27.9373C162.132 29.524 160.183 30.3173 157.886 30.3173C155.589 30.3173 153.64 29.524 152.038 27.9373C150.451 26.3356 149.658 24.3787 149.658 22.0667C149.658 19.7547 150.451 17.8053 152.038 16.2187C153.64 14.6169 155.589 13.816 157.886 13.816C160.183 13.816 162.132 14.6169 163.734 16.2187C165.336 17.8053 166.137 19.7547 166.137 22.0667C166.137 24.3787 165.336 26.3356 163.734 27.9373ZM154.237 25.8067C155.219 26.7738 156.435 27.2573 157.886 27.2573C159.337 27.2573 160.553 26.7738 161.535 25.8067C162.518 24.8244 163.009 23.5778 163.009 22.0667C163.009 20.5556 162.518 19.3089 161.535 18.3267C160.553 17.3444 159.337 16.8533 157.886 16.8533C156.435 16.8533 155.219 17.3444 154.237 18.3267C153.255 19.3089 152.763 20.5556 152.763 22.0667C152.763 23.5778 153.255 24.8244 154.237 25.8067ZM173.177 30.3173C171.606 30.3173 170.283 29.9698 169.21 29.2747C168.138 28.5644 167.382 27.6049 166.944 26.396L169.618 24.832C170.238 26.4489 171.454 27.2573 173.268 27.2573C174.144 27.2573 174.786 27.0987 175.194 26.7813C175.602 26.464 175.806 26.0636 175.806 25.58C175.806 25.0209 175.557 24.5902 175.058 24.288C174.56 23.9707 173.668 23.6307 172.384 23.268C171.674 23.0564 171.069 22.8449 170.57 22.6333C170.087 22.4218 169.596 22.1422 169.097 21.7947C168.614 21.432 168.243 20.9787 167.986 20.4347C167.73 19.8907 167.601 19.256 167.601 18.5307C167.601 17.0951 168.107 15.9542 169.12 15.108C170.147 14.2467 171.379 13.816 172.814 13.816C174.099 13.816 175.225 14.1333 176.192 14.768C177.174 15.3876 177.937 16.2564 178.481 17.3747L175.852 18.8933C175.217 17.5333 174.205 16.8533 172.814 16.8533C172.165 16.8533 171.651 17.0044 171.273 17.3067C170.91 17.5938 170.729 17.9716 170.729 18.44C170.729 18.9387 170.933 19.3467 171.341 19.664C171.764 19.9662 172.565 20.2987 173.744 20.6613C174.227 20.8124 174.59 20.9333 174.832 21.024C175.089 21.0996 175.429 21.228 175.852 21.4093C176.29 21.5756 176.622 21.7342 176.849 21.8853C177.091 22.0364 177.363 22.2404 177.665 22.4973C177.967 22.7542 178.194 23.0187 178.345 23.2907C178.511 23.5627 178.647 23.8951 178.753 24.288C178.874 24.6658 178.934 25.0813 178.934 25.5347C178.934 27.0004 178.398 28.164 177.325 29.0253C176.267 29.8867 174.885 30.3173 173.177 30.3173Z"
    fill="black"
  ></path>
</svg>
